<svg xmlns="http://www.w3.org/2000/svg" viewBox="0 0 32.42 22.99"><defs><style>.cls-1{fill:#fff;}.cls-2{fill:#d3d3d3;}</style></defs><g id="Layer_2" data-name="Layer 2"><path class="cls-1" d="M28,.41C26.79.23,20.89,0,16.21,0S5.63.23,4.4.41C2.27.76,1.11,1.71.49,4.19A64.08,64.08,0,0,0,0,11.3v.38A64.28,64.28,0,0,0,.49,18.8c.62,2.47,1.78,3.43,3.91,3.77,1.23.18,7.13.41,11.82.41h0c4.69,0,10.59-.24,11.81-.42,2.14-.34,3.29-1.3,3.92-3.77a64.28,64.28,0,0,0,.49-7.12V11.3a64.08,64.08,0,0,0-.49-7.11C31.3,1.71,30.15.76,28,.41"/><polygon class="cls-2" points="12.32 7.34 20.09 11.39 12.32 15.65 12.32 7.34"/></g></svg>