<svg xmlns="http://www.w3.org/2000/svg" viewBox="0 0 24.52 32.78"><defs><style>.cls-1{fill:#fff;fill-rule:evenodd;}</style></defs><g id="Layer_2" data-name="Layer 2"><path class="cls-1" d="M21.34,24.55c-3.25-.25-6.52,0-9.79-.25a3.79,3.79,0,0,1-3.13-3.07c-.2-1.57-.12-3.16-.18-4.76,4.36,0,8.72.2,13-.14a4,4,0,0,0,3.11-4.87,3.92,3.92,0,0,0-3.28-3.19c-4.24-.19-8.51,0-12.75,0,0-1.68,0-3.39-.17-5.07a3.94,3.94,0,0,0-4.81-3,4.35,4.35,0,0,0-3.33,5c0,5.21-.11,10.44.05,15.65A12.23,12.23,0,0,0,8.62,32.13c3.21,1,6.63.54,9.93.59,1.79,0,4.07.06,5.09-1.76a4,4,0,0,0-2.3-6.41"/></g></svg>