<svg xmlns="http://www.w3.org/2000/svg" viewBox="0 0 37.11 30.16"><defs><style>.cls-1{fill:#fff;}</style></defs><g id="Layer_2" data-name="Layer 2"><path class="cls-1" d="M37.11,3.57a15,15,0,0,1-4.38,1.2A7.63,7.63,0,0,0,36.08.56a15.52,15.52,0,0,1-4.83,1.85,7.61,7.61,0,0,0-13.17,5.2,8.28,8.28,0,0,0,.19,1.74A21.66,21.66,0,0,1,2.58,1.4,7.62,7.62,0,0,0,4.94,11.56a7.6,7.6,0,0,1-3.45-1v.09A7.63,7.63,0,0,0,7.6,18.17a7.84,7.84,0,0,1-2,.26,7.56,7.56,0,0,1-1.44-.13,7.63,7.63,0,0,0,7.11,5.29,15.3,15.3,0,0,1-9.46,3.25A15.44,15.44,0,0,1,0,26.74a21.55,21.55,0,0,0,11.67,3.42c14,0,21.66-11.6,21.66-21.66,0-.33,0-.66,0-1a15.48,15.48,0,0,0,3.8-3.94"/></g></svg>