<svg xmlns="http://www.w3.org/2000/svg" viewBox="0 0 32.39 41.04"><defs><style>.cls-1{fill:#fff;}</style></defs><g id="Layer_2" data-name="Layer 2"><path class="cls-1" d="M16.2,8.65a16.33,16.33,0,0,0-4,.49V6.07a1.23,1.23,0,0,0,0-.2A6.16,6.16,0,0,0,6.1,0,6.16,6.16,0,0,0,0,5.87c0,.06,0,11.52,0,11.52V25A16.2,16.2,0,1,0,16.2,8.65Zm0,29.9A13.7,13.7,0,0,1,2.49,24.85V6.19a3.62,3.62,0,1,1,7.23,0V24.68a6.63,6.63,0,0,0,6.49,6.66,6.5,6.5,0,1,0-4-11.61V17a8.76,8.76,0,0,1,4-.95,8.85,8.85,0,1,1-8.85,8.85V6.07a1.25,1.25,0,0,0-2.49,0V24.85q0,.42,0,.84a11.33,11.33,0,1,0,7.32-11.46v-2.5a13.47,13.47,0,0,1,4-.59,13.71,13.71,0,1,1,0,27.41Zm-4-13.7a4,4,0,1,1,4,4A4,4,0,0,1,12.21,24.85Z"/></g></svg>