<svg xmlns="http://www.w3.org/2000/svg" viewBox="0 0 41.2 41.19"><defs><style>.cls-1{fill:#fff;}</style></defs><g id="Layer_2" data-name="Layer 2"><path class="cls-1" d="M29.31,0H11.89A11.89,11.89,0,0,0,0,11.89V29.3A11.88,11.88,0,0,0,11.89,41.19H29.31A11.88,11.88,0,0,0,41.2,29.3V11.89A11.89,11.89,0,0,0,29.31,0M37.4,29.61a7.9,7.9,0,0,1-7.89,7.9H11.68a7.9,7.9,0,0,1-7.89-7.9V11.79A7.89,7.89,0,0,1,11.68,3.9H29.51a7.89,7.89,0,0,1,7.89,7.89Z"/><path class="cls-1" d="M20.6,10A10.69,10.69,0,1,0,31.29,20.7,10.69,10.69,0,0,0,20.6,10m0,17.62a6.93,6.93,0,1,1,6.93-6.93,6.93,6.93,0,0,1-6.93,6.93"/><path class="cls-1" d="M31.65,7.11A2.49,2.49,0,1,0,34.14,9.6a2.5,2.5,0,0,0-2.49-2.49"/></g></svg>