<svg xmlns="http://www.w3.org/2000/svg" viewBox="0 0 47.29 39.78"><defs><style>.cls-1{fill:#fff;}.cls-2{fill:#d3d3d3;}</style></defs><g id="Layer_2" data-name="Layer 2"><path class="cls-1" d="M39.82,0H7.47A7.48,7.48,0,0,0,0,7.5V25.28a7.48,7.48,0,0,0,7.47,7.49H18.61L22.41,39a.91.91,0,0,0,.13.18,1.27,1.27,0,0,0,2.2,0,.67.67,0,0,0,.13-.19l3.8-6.19H39.82a7.48,7.48,0,0,0,7.47-7.49V7.5A7.49,7.49,0,0,0,39.82,0"/><path class="cls-2" d="M10.5,13A3.84,3.84,0,0,0,8,14.17V9.58H5.15V21.64H8.07V20.7A2.77,2.77,0,0,0,10.5,22a4.28,4.28,0,0,0,4.08-4.52S14.43,13,10.5,13m-.64,6.36a1.86,1.86,0,1,1,1.86-1.85,1.85,1.85,0,0,1-1.86,1.85"/><path class="cls-2" d="M15.51,9.3v2.8s1.32-.06,1.32,2.4v7.14h2.79v-7.8s.12-4.54-4.11-4.54"/><path class="cls-2" d="M26.45,13.07s-4.79,0-4.79,4.47c0,0-.15,4.41,4.79,4.41,0,0,4.89,0,4.89-4.41,0,0,.16-4.47-4.89-4.47m0,6.32a1.86,1.86,0,1,1,1.86-1.85,1.85,1.85,0,0,1-1.86,1.85"/><path class="cls-2" d="M39.33,13.35v.82a3.16,3.16,0,0,0-2.43-1.1s-4.1-.18-4.1,4.43c0,0,0,4.3,4,4.3a3.37,3.37,0,0,0,2.55-1.1v.67s.2,2.12-1.85,2.12h-.7v2.56h1.13a4.2,4.2,0,0,0,4.23-4.52V13.35Zm-1.73,6a1.86,1.86,0,1,1,1.86-1.85,1.85,1.85,0,0,1-1.86,1.85"/></g></svg>